<svg width="18" height="20" viewBox="0 0 18 20" fill="none" xmlns="http://www.w3.org/2000/svg">
<path d="M15.6667 19H2.33334C1.59696 19 1 18.4482 1 17.7674C1 15.7287 2.36827 13.9039 4.43344 13.1884L4.84346 13.0463C7.52346 12.1178 10.4765 12.1178 13.1565 13.0463L13.5666 13.1884C15.6317 13.9039 17 15.7287 17 17.7674C17 18.4482 16.403 19 15.6667 19Z" stroke="#163152" stroke-linecap="square" stroke-linejoin="round"/>
<path d="M6.96715 9.40685C8.24313 10.0128 9.75687 10.0128 11.0328 9.40685C12.2204 8.84296 13.0712 7.81591 13.3505 6.60911L13.4251 6.28703C13.7107 5.05295 13.4056 3.76495 12.5881 2.75419L12.4684 2.60617C11.6508 1.59527 10.3654 1 9 1C7.63459 1 6.34915 1.59527 5.53157 2.60617L5.41186 2.75419C4.59439 3.76495 4.28926 5.05295 4.57492 6.28703L4.64947 6.60911C4.92882 7.81591 5.77964 8.84296 6.96715 9.40685Z" stroke="#163152" stroke-linecap="square" stroke-linejoin="round"/>
</svg>
