<svg width="22" height="22" fill="none" xmlns="http://www.w3.org/2000/svg"><path d="M1 1.714C1 1.32 1.32 1 1.714 1h7.143c.395 0 .714.32.714.714v7.143c0 .395-.32.714-.714.714H1.714A.714.714 0 0 1 1 8.857V1.714ZM12.429 1.714c0-.394.32-.714.714-.714h7.143c.394 0 .714.32.714.714v7.143c0 .395-.32.714-.714.714h-7.143a.714.714 0 0 1-.714-.714V1.714ZM1 13.143c0-.395.32-.714.714-.714h7.143c.395 0 .714.32.714.714v7.143c0 .394-.32.714-.714.714H1.714A.714.714 0 0 1 1 20.286v-7.143ZM12.429 13.143c0-.395.32-.714.714-.714h7.143c.394 0 .714.32.714.714v7.143c0 .394-.32.714-.714.714h-7.143a.714.714 0 0 1-.714-.714v-7.143Z" stroke="#fdfdff" stroke-linecap="round"/></svg>
