<svg fill="none" xmlns="http://www.w3.org/2000/svg" width="64" height="68" viewBox="0 0 64 68"><path d="M43.23 51.76c-5.51 2.93-30.96 6.62-30.96 6.62s19.15-1.02 30.7-2.67C54.5 54.05 60.8 40.16 60.8 40.16L3.87 46.4l50.64-2.17s-5.78 4.6-11.28 7.53zM32.34 4.42c13.55 20.7.78 34.5.78 34.5 8.92-15.8-.78-34.5-.78-34.5zM29.3 41.3l25.29-2.8S60.72 12.94 27.88 0c0 0 12.7 23.22 1.43 41.3zM11.74 41.3c9.05-10.58 14.17-30.72 14.17-30.72C23.94 30.85 11.74 41.3 11.74 41.3zM26.83 3.2s-6.3 24.09-18.24 40.4l19.29-2.29L26.83 3.2z" fill="#163152"/><path d="M24.2 47.68L3.87 49.27l.66 1.6 19.67-3.2zM21.84 52.52L6.43 55.06l.66 1.6 14.75-4.14zM5.32 52.46l.65 1.59 21.9-4.78-22.55 3.19zM7.42 61.79h-.14c-.18 0-.36.04-.53.14-.16.1-.3.22-.4.36l-1.89 2.82v2.1c.01.16.07.29.18.4.12.1.26.15.43.15h.12v.1H2.22v-.1h.12a.6.6 0 00.42-.15.57.57 0 00.18-.4v-2.1L1.06 62.3c-.1-.15-.23-.27-.4-.36-.17-.1-.34-.14-.53-.14H0v-.1h3.22v.1h-.11c-.14 0-.24.04-.3.13a.4.4 0 00-.08.22c0 .05 0 .1.04.15l1.4 2.37 1.44-2.37.03-.15c0-.07-.03-.14-.1-.22-.05-.09-.15-.13-.28-.13h-.1v-.1h2.26v.1zM13.28 67.76h.09v.1h-3.12v-.1h.08c.15 0 .25-.04.31-.12.07-.08.1-.16.1-.23a.62.62 0 00-.04-.21l-.42-.95H8.03l-.42.96a.56.56 0 00-.04.21c0 .07.03.15.1.23.06.08.17.11.31.11h.09v.1H5.94v-.1h.09c.15 0 .3-.04.44-.13a.97.97 0 00.37-.4l2.19-4.58c.31-.68.47-1.1.49-1.26h.1l2.84 5.8c.09.2.2.34.36.44.15.09.3.13.46.13zm-5.07-1.91h1.9l-.94-2.16-.96 2.16zM17.07 68a4.3 4.3 0 01-2.8-.86 2.93 2.93 0 01-1.02-2.37c0-1 .34-1.8 1-2.37a4.24 4.24 0 012.82-.85c.93 0 1.73.16 2.38.47v1.64h-.07a2.33 2.33 0 00-.82-1.3c-.37-.27-.83-.4-1.39-.4-.75 0-1.32.25-1.71.75-.4.5-.6 1.18-.6 2.04 0 .86.2 1.55.58 2.05.4.53.96.79 1.65.79.5 0 .91-.08 1.24-.23.32-.15.58-.4.77-.72.2-.34.33-.79.43-1.36h.07l.13 1.56a2.3 2.3 0 01-1 .84c-.45.21-1 .32-1.66.32zM27.6 67.76h.12v.1H24.8v-.1h.11a.6.6 0 00.41-.15.5.5 0 00.17-.4V65H22.7v2.23c.01.15.07.29.18.39.12.1.25.15.4.15h.12v.1h-2.92v-.1h.11a.6.6 0 00.42-.15.53.53 0 00.17-.4v-4.88a.5.5 0 00-.17-.38.57.57 0 00-.42-.16h-.11v-.1h2.92v.1h-.11a.58.58 0 00-.4.15.53.53 0 00-.19.38v2.26h2.8v-2.25a.5.5 0 00-.3-.47.63.63 0 00-.29-.07h-.1v-.1h2.91v.1h-.12a.58.58 0 00-.4.15.54.54 0 00-.18.4v4.89c0 .21.1.36.29.46.09.05.19.07.3.07zM34.2 63.15v-.1c0-.3-.08-.53-.25-.7a.99.99 0 00-.7-.26H32v5.14a.58.58 0 00.58.54h.12v.1H29.8v-.1h.1a.6.6 0 00.42-.16.5.5 0 00.17-.4V62.1h-1.22a1 1 0 00-.72.26.95.95 0 00-.26.7v.1h-.1v-1.63a4.35 4.35 0 001.11.15h3.91a3.86 3.86 0 001.11-.15v1.63h-.1zM41.25 68a4.3 4.3 0 01-2.8-.86 2.93 2.93 0 01-1.02-2.37c0-1 .33-1.8 1-2.37a4.24 4.24 0 012.82-.85c.93 0 1.72.16 2.38.47v1.64h-.07a2.33 2.33 0 00-.82-1.3c-.37-.27-.83-.4-1.39-.4-.75 0-1.32.25-1.72.75-.4.5-.59 1.18-.59 2.04 0 .86.2 1.55.58 2.05.4.53.95.79 1.65.79.5 0 .91-.08 1.24-.23.32-.15.58-.4.77-.72.2-.34.33-.79.43-1.36h.07l.13 1.56a2.3 2.3 0 01-1.01.84c-.45.21-1 .32-1.65.32zM44.66 67.87v-.1h.12c.17 0 .3-.06.4-.16a.5.5 0 00.18-.38v-4.9a.5.5 0 00-.17-.38.56.56 0 00-.4-.16h-.13v-.1h2.94v.1h-.12a.6.6 0 00-.42.15.5.5 0 00-.17.4v5.11h1.28c.43 0 .8-.13 1.1-.39.31-.26.54-.62.68-1.09h.11l-.4 1.9h-5zM57.26 61.79h-.14a.49.49 0 00-.34.12.4.4 0 00-.15.3v3.41c0 .74-.23 1.33-.7 1.75-.47.42-1.16.63-2.09.63-.92 0-1.64-.2-2.15-.62-.51-.41-.77-1-.77-1.74v-3.42a.39.39 0 00-.14-.31.49.49 0 00-.34-.12h-.15v-.1h2.79v.1h-.15a.49.49 0 00-.34.12.4.4 0 00-.14.3v3.36c0 .63.15 1.12.45 1.48.3.36.72.54 1.27.54.54 0 .97-.17 1.28-.5.32-.34.48-.81.48-1.4v-3.47a.41.41 0 00-.15-.31.49.49 0 00-.34-.12h-.14v-.1h1.96v.1zM63.09 63.22c0 .25-.06.48-.17.67a1.2 1.2 0 01-1 .6c.47.04.87.2 1.19.5.32.29.48.66.48 1.11 0 .89-.55 1.45-1.65 1.67-.3.07-.65.1-1.02.1h-3.07v-.1h.12c.16 0 .3-.06.4-.16.11-.1.17-.24.18-.4v-4.88a.52.52 0 00-.36-.5.6.6 0 00-.22-.04h-.12v-.1h2.84c1.6 0 2.4.5 2.4 1.53zm-1.22 2.8c0-.32-.07-.59-.2-.8-.25-.41-.68-.62-1.29-.62h-.02v-.1c.34 0 .62-.09.83-.28.21-.2.32-.5.32-.9 0-.82-.39-1.23-1.16-1.23h-.3v5.36h.43c.4 0 .74-.11 1-.35.26-.23.39-.6.39-1.09z" fill="#163152"/></svg>
