<svg width="14" height="18" fill="none" xmlns="http://www.w3.org/2000/svg"><path d="M12.425 1.609a8.514 8.514 0 0 0-6.324 0c-2.025.812-3.633 2.37-4.472 4.33a7.765 7.765 0 0 0 0 6.123c.839 1.96 2.447 3.517 4.472 4.329a8.514 8.514 0 0 0 6.579-.107c.566-.249.323-1.052-.278-1.205a6.656 6.656 0 0 1-.832-.272 6.393 6.393 0 0 1-3.514-3.402 6.101 6.101 0 0 1 0-4.81 6.393 6.393 0 0 1 3.514-3.402c.272-.11.55-.2.832-.272.601-.153.844-.956.278-1.205a8.32 8.32 0 0 0-.255-.107Z" stroke="#fdfdff" stroke-linecap="round" stroke-linejoin="round"/></svg>
