<svg width="15" height="20" fill="none" xmlns="http://www.w3.org/2000/svg"><path d="M14 7.433C14 3.88 11.09 1 7.5 1S1 3.88 1 7.433v.387c0 1.421.449 2.807 1.284 3.964l5.203 7.21c.006.008.02.008.026 0l5.203-7.21A6.772 6.772 0 0 0 14 7.82v-.387Z" stroke="#00C6BD" stroke-linecap="round" stroke-linejoin="round"/><path d="M6.23 4.86a2.956 2.956 0 0 1 2.54 0 2.904 2.904 0 0 1 1.585 1.966c.198.86-.01 1.762-.566 2.452a2.94 2.94 0 0 1-2.289 1.09 2.94 2.94 0 0 1-2.29-1.09 2.875 2.875 0 0 1-.565-2.452A2.904 2.904 0 0 1 6.23 4.86Z" stroke="#00C6BD" stroke-linecap="round" stroke-linejoin="round"/></svg>