<svg width="18" height="18" fill="none" xmlns="http://www.w3.org/2000/svg"><path d="M9.01 3.465 9 1l-.01 2.466.01-.004.01.003ZM12.907 5.08l.01.004.003.01 1.737-1.75-1.75 1.736ZM14.535 8.99l.004.01-.004.01L17 9l-2.465-.01ZM12.92 12.907l-.004.01-.01.003 1.75 1.737-1.736-1.75ZM9.01 14.535l-.01.004-.01-.005L9 17l.01-2.465ZM5.093 12.92l-.01-.004-.003-.01-1.737 1.75 1.75-1.736ZM3.466 9.01 3.462 9l.004-.01L1 9l2.466.01ZM5.08 5.093l.004-.01.01-.003-1.75-1.737 1.736 1.75ZM7.695 5.848a3.411 3.411 0 1 1 2.61 6.303 3.411 3.411 0 0 1-2.61-6.303Z" stroke="#163152" stroke-linecap="square" stroke-linejoin="round"/></svg>
