<svg fill="none" xmlns="http://www.w3.org/2000/svg" width="18" height="16" viewBox="0 0 18 16"><path d="M12.48 1.92c-.68 0-1.34.29-1.83.8-.48.51-.76 1.21-.77 1.94l-.03 1.51a.61.61 0 01-.19.43.5.5 0 01-.42.13l-1.4-.2a10.22 10.22 0 01-5.3-2.69c-.54 3.18.5 5.39 3.03 7.09l1.57 1.05c.07.05.14.12.18.2a.6.6 0 01-.15.76l-1.43 1.11c.85.06 1.66.02 2.33-.12 4.23-.9 7.05-4.32 7.05-9.95 0-.46-.91-2.06-2.64-2.06zm-4.4 2.7c.02-.92.29-1.82.78-2.59a4.47 4.47 0 011.98-1.7c.8-.34 1.69-.42 2.53-.23.85.19 1.63.64 2.24 1.3.63 0 1.18.17 2.39-.62-.3 1.58-.45 2.26-1.09 3.2 0 7.35-4.21 10.92-8.5 11.83-2.92.63-7.19-.4-8.41-1.77.62-.05 3.15-.34 4.62-1.49C3.38 11.68-1.55 8.57 1.69.23c1.52 1.9 3.06 3.2 4.62 3.88 1.04.45 1.3.45 1.77.52z" fill="#163152"/></svg>
