<svg width="18" height="20" fill="none" xmlns="http://www.w3.org/2000/svg"><path d="M15.667 19H2.333C1.597 19 1 18.448 1 17.767c0-2.038 1.368-3.863 3.433-4.579l.41-.142a12.753 12.753 0 0 1 8.313 0l.41.142c2.066.716 3.434 2.54 3.434 4.58 0 .68-.597 1.232-1.333 1.232ZM6.967 9.407a4.774 4.774 0 0 0 4.066 0c1.187-.564 2.038-1.591 2.318-2.798l.074-.322c.286-1.234-.02-2.522-.837-3.533l-.12-.148C11.651 1.596 10.365 1 9 1c-1.365 0-2.65.595-3.468 1.606l-.12.148c-.818 1.01-1.123 2.299-.837 3.533l.074.322c.28 1.207 1.13 2.234 2.318 2.798Z" stroke="#163152" stroke-linecap="square" stroke-linejoin="round"/></svg>