<svg width="64" height="68" viewBox="0 0 64 68" fill="none" xmlns="http://www.w3.org/2000/svg">
<path d="M43.5066 51.7552C37.9617 54.6873 12.3478 58.3843 12.3478 58.3843C12.3478 58.3843 31.6238 57.3641 43.2429 55.7075C54.8613 54.0502 61.1985 40.155 61.1985 40.155L3.89787 46.4016L54.8613 44.2345C54.8613 44.2345 49.0521 48.8232 43.5066 51.7552Z" fill="#163152"/>
<path d="M32.5479 4.41895C46.1911 25.1129 33.3403 38.9226 33.3403 38.9226C42.3187 23.1156 32.5479 4.41895 32.5479 4.41895ZM29.4978 41.3025L54.9562 38.5094C54.9562 38.5094 61.1163 12.934 28.0592 0C28.0592 0 40.8475 23.2232 29.4978 41.3025Z" fill="#163152"/>
<path d="M11.8196 41.3025C20.9296 30.7218 26.0788 10.5807 26.0788 10.5807C24.0985 30.8491 11.8196 41.3025 11.8196 41.3025ZM27.0031 3.18659C27.0031 3.18659 20.6656 27.28 8.65076 43.5968L28.0592 41.3025L27.0031 3.18659Z" fill="#163152"/>
<path d="M24.3624 47.6763L3.89787 49.2696L4.5579 50.8629L24.3624 47.6763Z" fill="#163152"/>
<path d="M21.986 52.5202L6.47228 55.0575L7.13262 56.6514L21.986 52.5202Z" fill="#163152"/>
<path d="M5.35004 52.4562L6.01038 54.0501L28.0592 49.2696L5.35004 52.4562Z" fill="#163152"/>
<path d="M7.47084 61.7864H7.3321C7.1471 61.7864 6.96923 61.8344 6.79846 61.9306C6.63482 62.0268 6.49963 62.147 6.3929 62.2913L4.49318 65.1147V67.2169C4.50029 67.368 4.56077 67.4985 4.67461 67.6084C4.78845 67.7115 4.93075 67.763 5.10152 67.763H5.21892V67.866H2.23058V67.763H2.35865C2.5223 67.763 2.66104 67.7115 2.77488 67.6084C2.88873 67.4985 2.9492 67.368 2.95632 67.2169V65.1147L1.06726 62.2913C0.967652 62.1401 0.832465 62.0199 0.661703 61.9306C0.498056 61.8344 0.320179 61.7864 0.128072 61.7864H0V61.6833H3.24448V61.7864H3.12708C2.99189 61.7864 2.89228 61.831 2.82825 61.9203C2.77133 62.0027 2.74287 62.0749 2.74287 62.1367C2.74287 62.1917 2.7571 62.2432 2.78556 62.2913L4.20502 64.6613L5.64582 62.2913C5.66717 62.2432 5.67784 62.1917 5.67784 62.1367C5.67784 62.0749 5.64582 62.0027 5.58179 61.9203C5.52486 61.831 5.42881 61.7864 5.29362 61.7864H5.1869V61.6833H7.47084V61.7864Z" fill="#163152"/>
<path d="M13.369 67.763H13.4543V67.866H10.3166V67.763H10.402C10.5443 67.763 10.6474 67.7218 10.7115 67.6393C10.7755 67.5569 10.8075 67.4813 10.8075 67.4126C10.8075 67.3439 10.7933 67.2718 10.7648 67.1962L10.3486 66.2482H8.08602L7.65911 67.2066C7.63065 67.2752 7.61642 67.3474 7.61642 67.4229C7.61642 67.4916 7.64844 67.5672 7.71247 67.6496C7.78363 67.7252 7.89035 67.763 8.03265 67.763H8.11803V67.866H5.98351V67.763H6.06889C6.21831 67.763 6.36772 67.7183 6.51714 67.629C6.66656 67.5397 6.78751 67.4058 6.88001 67.2272L9.08924 62.6519C9.40231 61.9718 9.56596 61.5528 9.58018 61.3948H9.67624L12.5365 67.1859C12.629 67.3852 12.75 67.5329 12.8994 67.629C13.0559 67.7183 13.2124 67.763 13.369 67.763ZM8.26745 65.8463H10.1672L9.22799 63.6927L8.26745 65.8463Z" fill="#163152"/>
<path d="M17.1781 68C15.9828 67.9931 15.0436 67.708 14.3605 67.1447C13.6775 66.5745 13.3359 65.7845 13.3359 64.7747C13.3359 63.7648 13.6739 62.9748 14.3498 62.4046C15.0329 61.8344 15.9756 61.5493 17.1781 61.5493C18.1173 61.5493 18.9177 61.7073 19.5794 62.0234V63.6618H19.5047C19.3269 63.0504 19.0529 62.6141 18.6829 62.3531C18.313 62.092 17.8469 61.9615 17.2848 61.9615C16.5306 61.9615 15.9543 62.2123 15.5559 62.7138C15.1574 63.2084 14.9582 63.8885 14.9582 64.7541C14.9582 65.6128 15.1539 66.2963 15.5452 66.8047C15.9507 67.3268 16.5022 67.5878 17.1994 67.5878C17.7046 67.5878 18.1208 67.5122 18.4481 67.3611C18.7754 67.21 19.0351 66.9695 19.2272 66.6398C19.4193 66.3032 19.5616 65.8498 19.6541 65.2796H19.7289L19.8569 66.8356C19.6364 67.1859 19.2984 67.4676 18.843 67.6806C18.3948 67.8935 17.8398 68 17.1781 68Z" fill="#163152"/>
<path d="M27.7829 67.763H27.9003V67.866H24.9653V67.763H25.072C25.2357 67.763 25.3744 67.7115 25.4882 67.6084C25.6021 67.5054 25.659 67.3749 25.659 67.2169V64.9911H22.8521V67.2169C22.8592 67.3749 22.9197 67.5054 23.0335 67.6084C23.1474 67.7115 23.2826 67.763 23.4391 67.763H23.5565V67.866H20.6108V67.763H20.7282C20.8919 67.763 21.0306 67.7115 21.1445 67.6084C21.2583 67.4985 21.3152 67.368 21.3152 67.2169V62.3325C21.3152 62.1814 21.2583 62.0543 21.1445 61.9512C21.0306 61.8413 20.8919 61.7864 20.7282 61.7864H20.6108V61.6833H23.5565V61.7864H23.4391C23.2826 61.7864 23.1474 61.8379 23.0335 61.9409C22.9197 62.044 22.8592 62.1711 22.8521 62.3222V64.5789H25.659V62.3325C25.659 62.1195 25.5629 61.9615 25.3708 61.8585C25.2783 61.8104 25.1787 61.7864 25.072 61.7864H24.9653V61.6833H27.9003V61.7864H27.7829C27.6263 61.7864 27.4911 61.8379 27.3773 61.9409C27.2635 62.044 27.203 62.1745 27.1959 62.3325V67.2272C27.203 67.4401 27.299 67.5947 27.484 67.6909C27.5765 67.7389 27.6761 67.763 27.7829 67.763Z" fill="#163152"/>
<path d="M34.4319 63.1466V63.0538C34.4319 62.7584 34.3465 62.5248 34.1758 62.3531C34.005 62.1814 33.7666 62.0921 33.4607 62.0852H32.2227V67.2272C32.2298 67.3783 32.2903 67.5054 32.4041 67.6084C32.5179 67.7115 32.6531 67.763 32.8097 67.763H32.9271V67.866H29.9814V67.763H30.0881C30.2518 67.763 30.3905 67.7115 30.5044 67.6084C30.6182 67.5054 30.6751 67.3749 30.6751 67.2169V62.0852H29.4478C29.1347 62.0921 28.8928 62.1814 28.722 62.3531C28.5513 62.5248 28.4659 62.7584 28.4659 63.0538V63.1466H28.3592V61.5184C28.4588 61.5528 28.6224 61.5871 28.8501 61.6215C29.0849 61.6558 29.2948 61.673 29.4798 61.673H33.418C33.7311 61.673 33.9872 61.6524 34.1864 61.6112C34.3928 61.5631 34.5102 61.5322 34.5386 61.5184V63.1466H34.4319Z" fill="#163152"/>
<path d="M41.5146 68C40.3193 67.9931 39.3801 67.708 38.697 67.1447C38.014 66.5745 37.6725 65.7845 37.6725 64.7747C37.6725 63.7648 38.0104 62.9748 38.6864 62.4046C39.3694 61.8344 40.3122 61.5493 41.5146 61.5493C42.4538 61.5493 43.2542 61.7073 43.9159 62.0234V63.6618H43.8412C43.6634 63.0504 43.3894 62.6141 43.0194 62.3531C42.6495 62.092 42.1834 61.9615 41.6213 61.9615C40.8671 61.9615 40.2908 62.2123 39.8924 62.7138C39.4939 63.2084 39.2947 63.8885 39.2947 64.7541C39.2947 65.6128 39.4904 66.2963 39.8817 66.8047C40.2873 67.3268 40.8387 67.5878 41.5359 67.5878C42.0411 67.5878 42.4574 67.5122 42.7846 67.3611C43.1119 67.21 43.3716 66.9695 43.5637 66.6398C43.7559 66.3032 43.8982 65.8498 43.9907 65.2796H44.0654L44.1934 66.8356C43.9729 67.1859 43.6349 67.4676 43.1795 67.6806C42.7313 67.8935 42.1763 68 41.5146 68Z" fill="#163152"/>
<path d="M44.9474 67.866V67.763H45.0754C45.2391 67.763 45.3743 67.7115 45.481 67.6084C45.5948 67.5054 45.6517 67.3783 45.6517 67.2272V62.3325C45.6517 62.1814 45.5948 62.0543 45.481 61.9512C45.3671 61.8413 45.232 61.7864 45.0754 61.7864H44.9474V61.6833H47.9143V61.7864H47.7863C47.6226 61.7864 47.4839 61.8379 47.37 61.9409C47.2562 62.044 47.1993 62.1745 47.1993 62.3325V67.4539H48.48C48.9211 67.447 49.2947 67.3165 49.6006 67.0623C49.9066 66.8012 50.1307 66.4371 50.273 65.97H50.3904L49.9742 67.866H44.9474Z" fill="#163152"/>
<path d="M57.638 61.7864H57.4886C57.3534 61.7864 57.2396 61.8276 57.1471 61.91C57.0546 61.9856 57.0048 62.0852 56.9977 62.2088V65.6196C56.9977 66.3616 56.7629 66.9455 56.2933 67.3714C55.8237 67.7905 55.1228 68 54.1908 68C53.2658 68 52.5436 67.7939 52.0242 67.3817C51.5119 66.9695 51.2558 66.3891 51.2558 65.6403V62.2191C51.2558 62.0955 51.206 61.9924 51.1064 61.91C51.0139 61.8276 50.9 61.7864 50.7649 61.7864H50.6154V61.6833H53.4223V61.7864H53.2729C53.1377 61.7864 53.0239 61.8276 52.9314 61.91C52.8389 61.9924 52.7927 62.0955 52.7927 62.2191V65.5681C52.7927 66.2001 52.9421 66.6948 53.2409 67.052C53.5469 67.4092 53.9738 67.5878 54.5216 67.5878C55.0695 67.5878 55.4999 67.4195 55.813 67.0829C56.1332 66.7463 56.2933 66.2791 56.2933 65.6815V62.2191C56.2862 62.0886 56.2364 61.9856 56.1439 61.91C56.0514 61.8276 55.9375 61.7864 55.8023 61.7864H55.6636V61.6833H57.638V61.7864Z" fill="#163152"/>
<path d="M63.4984 63.2187C63.4984 63.4729 63.4415 63.6961 63.3276 63.8885C63.1071 64.2594 62.7726 64.4621 62.3244 64.4964C62.8011 64.5308 63.1996 64.6957 63.5197 64.9911C63.8399 65.2796 64 65.6506 64 66.104C64 66.9902 63.4486 67.5466 62.3457 67.7733C62.0327 67.8351 61.6912 67.866 61.3212 67.866H58.2261V67.763H58.3435C58.5071 67.763 58.6423 67.7115 58.7491 67.6084C58.8629 67.5054 58.9234 67.3749 58.9305 67.2169V62.3325C58.9234 62.0852 58.8024 61.9169 58.5676 61.8276C58.4965 61.8001 58.4218 61.7864 58.3435 61.7864H58.2261V61.6833H61.0864C62.6944 61.6833 63.4984 62.1951 63.4984 63.2187ZM62.271 66.0112C62.271 65.6952 62.2034 65.4307 62.0683 65.2178C61.8192 64.8056 61.3888 64.5995 60.7769 64.5995C60.7698 64.5995 60.7626 64.5995 60.7555 64.5995V64.5068C61.097 64.5068 61.3745 64.4106 61.588 64.2182C61.8014 64.0259 61.9082 63.727 61.9082 63.3217C61.9082 62.4974 61.5204 62.0852 60.7448 62.0852H60.446V67.4539H60.8729C61.2856 67.4539 61.62 67.3371 61.8761 67.1035C62.1394 66.8699 62.271 66.5058 62.271 66.0112Z" fill="#163152"/>
</svg>
