<svg width="9" height="16" viewBox="0 0 9 16" fill="none" xmlns="http://www.w3.org/2000/svg">
<path d="M5.14286 6.22222H9L8.57143 8H5.14286V16H3.42857V8H0V6.22222H3.42857V4.55822C3.42857 2.97333 3.588 2.39822 3.88629 1.81867C4.17858 1.24605 4.63012 0.777786 5.18229 0.474667C5.74114 0.165333 6.29571 0 7.824 0C8.27143 0 8.664 0.0444445 9 0.133333V1.77778H7.824C6.68914 1.77778 6.34371 1.84711 5.99143 2.04267C5.73086 2.18667 5.53714 2.38756 5.39829 2.65778C5.20971 3.02311 5.14286 3.38133 5.14286 4.55822V6.22222Z" fill="#163152"/>
</svg>
