<svg width="40" height="40" viewBox="0 0 40 40" fill="none" xmlns="http://www.w3.org/2000/svg">
<path d="M39.5 20C39.5 30.7696 30.7696 39.5 20 39.5C9.23045 39.5 0.5 30.7696 0.5 20C0.5 9.23045 9.23045 0.5 20 0.5C30.7696 0.5 39.5 9.23045 39.5 20Z" stroke="#00C6BD"/>
<path d="M20.1429 18.2222H24L23.5714 20H20.1429V28H18.4286V20H15V18.2222H18.4286V16.5582C18.4286 14.9733 18.588 14.3982 18.8863 13.8187C19.1786 13.2461 19.6301 12.7778 20.1823 12.4747C20.7411 12.1653 21.2957 12 22.824 12C23.2714 12 23.664 12.0444 24 12.1333V13.7778H22.824C21.6891 13.7778 21.3437 13.8471 20.9914 14.0427C20.7309 14.1867 20.5371 14.3876 20.3983 14.6578C20.2097 15.0231 20.1429 15.3813 20.1429 16.5582V18.2222Z" fill="#163152"/>
</svg>
