<svg width="40" height="40" viewBox="0 0 40 40" fill="none" xmlns="http://www.w3.org/2000/svg">
<g id="instagram">
<path id="back" d="M39.5 20C39.5 30.7696 30.7696 39.5 20 39.5C9.23045 39.5 0.5 30.7696 0.5 20C0.5 9.23045 9.23045 0.5 20 0.5C30.7696 0.5 39.5 9.23045 39.5 20Z" stroke="#00C6BD"/>
<path id="instagram_2" d="M20 17.3C19.2839 17.3 18.5972 17.5845 18.0908 18.0908C17.5845 18.5972 17.3 19.2839 17.3 20C17.3 20.7161 17.5845 21.4028 18.0908 21.9092C18.5972 22.4155 19.2839 22.7 20 22.7C20.7161 22.7 21.4028 22.4155 21.9092 21.9092C22.4155 21.4028 22.7 20.7161 22.7 20C22.7 19.2839 22.4155 18.5972 21.9092 18.0908C21.4028 17.5845 20.7161 17.3 20 17.3ZM20 15.5C21.1935 15.5 22.3381 15.9741 23.182 16.818C24.0259 17.6619 24.5 18.8065 24.5 20C24.5 21.1935 24.0259 22.3381 23.182 23.182C22.3381 24.0259 21.1935 24.5 20 24.5C18.8065 24.5 17.6619 24.0259 16.818 23.182C15.9741 22.3381 15.5 21.1935 15.5 20C15.5 18.8065 15.9741 17.6619 16.818 16.818C17.6619 15.9741 18.8065 15.5 20 15.5ZM25.85 15.275C25.85 15.5734 25.7315 15.8595 25.5205 16.0705C25.3095 16.2815 25.0234 16.4 24.725 16.4C24.4266 16.4 24.1405 16.2815 23.9295 16.0705C23.7185 15.8595 23.6 15.5734 23.6 15.275C23.6 14.9766 23.7185 14.6905 23.9295 14.4795C24.1405 14.2685 24.4266 14.15 24.725 14.15C25.0234 14.15 25.3095 14.2685 25.5205 14.4795C25.7315 14.6905 25.85 14.9766 25.85 15.275ZM20 12.8C17.7734 12.8 17.4098 12.8063 16.3739 12.8522C15.6683 12.8855 15.1949 12.98 14.7557 13.151C14.3651 13.3022 14.0834 13.4831 13.7837 13.7837C13.502 14.0559 13.2854 14.3881 13.1501 14.7557C12.9791 15.1967 12.8846 15.6692 12.8522 16.3739C12.8054 17.3675 12.8 17.7149 12.8 20C12.8 22.2266 12.8063 22.5902 12.8522 23.6261C12.8855 24.3308 12.98 24.8051 13.1501 25.2434C13.3031 25.6349 13.4831 25.9166 13.7819 26.2154C14.0852 26.5178 14.3669 26.6987 14.7539 26.8481C15.1985 27.02 15.6719 27.1154 16.3739 27.1478C17.3675 27.1946 17.7149 27.2 20 27.2C22.2266 27.2 22.5902 27.1937 23.6261 27.1478C24.3299 27.1145 24.8042 27.02 25.2434 26.8499C25.6331 26.6978 25.9166 26.5169 26.2154 26.2181C26.5187 25.9148 26.6996 25.6331 26.849 25.2461C27.02 24.8024 27.1154 24.3281 27.1478 23.6261C27.1946 22.6325 27.2 22.2851 27.2 20C27.2 17.7734 27.1937 17.4098 27.1478 16.3739C27.1145 15.6701 27.02 15.1949 26.849 14.7557C26.7134 14.3885 26.4972 14.0564 26.2163 13.7837C25.9443 13.5019 25.612 13.2852 25.2443 13.1501C24.8033 12.9791 24.3299 12.8846 23.6261 12.8522C22.6325 12.8054 22.2851 12.8 20 12.8ZM20 11C22.4453 11 22.7504 11.009 23.7098 11.054C24.6683 11.099 25.3208 11.2493 25.895 11.4725C26.489 11.7011 26.9894 12.0107 27.4898 12.5102C27.9474 12.9601 28.3016 13.5043 28.5275 14.105C28.7498 14.6783 28.901 15.3317 28.946 16.2902C28.9883 17.2496 29 17.5547 29 20C29 22.4453 28.991 22.7504 28.946 23.7098C28.901 24.6683 28.7498 25.3208 28.5275 25.895C28.3022 26.496 27.948 27.0404 27.4898 27.4898C27.0398 27.9473 26.4956 28.3014 25.895 28.5275C25.3217 28.7498 24.6683 28.901 23.7098 28.946C22.7504 28.9883 22.4453 29 20 29C17.5547 29 17.2496 28.991 16.2902 28.946C15.3317 28.901 14.6792 28.7498 14.105 28.5275C13.5041 28.302 12.9598 27.9478 12.5102 27.4898C12.0525 27.04 11.6983 26.4957 11.4725 25.895C11.2493 25.3217 11.099 24.6683 11.054 23.7098C11.0117 22.7504 11 22.4453 11 20C11 17.5547 11.009 17.2496 11.054 16.2902C11.099 15.3308 11.2493 14.6792 11.4725 14.105C11.6977 13.504 12.0519 12.9596 12.5102 12.5102C12.9599 12.0523 13.5042 11.6982 14.105 11.4725C14.6792 11.2493 15.3308 11.099 16.2902 11.054C17.2496 11.0117 17.5547 11 20 11Z" fill="#163152"/>
</g>
</svg>
