<svg width="40" height="40" viewBox="0 0 40 40" fill="none" xmlns="http://www.w3.org/2000/svg">
<path d="M39.5 20C39.5 30.7696 30.7696 39.5 20 39.5C9.23045 39.5 0.5 30.7696 0.5 20C0.5 9.23045 9.23045 0.5 20 0.5C30.7696 0.5 39.5 9.23045 39.5 20Z" stroke="#00C6BD"/>
<path d="M23.4777 13.9235C22.7957 13.9234 22.1409 14.2101 21.6542 14.7218C21.1675 15.2336 20.8878 15.9295 20.8754 16.6599L20.8502 18.1737C20.8488 18.255 20.8313 18.335 20.7989 18.4085C20.7665 18.482 20.72 18.5474 20.6624 18.6003C20.6048 18.6532 20.5373 18.6925 20.4646 18.7155C20.3918 18.7386 20.3153 18.7449 20.24 18.734L18.8393 18.5303C16.9961 18.2612 15.2301 17.3519 13.5359 15.84C12.9993 19.0214 14.0474 21.2253 16.5717 22.9256L18.1393 23.9809C18.2138 24.031 18.2757 24.1 18.3196 24.1816C18.3634 24.2633 18.3879 24.3553 18.391 24.4494C18.394 24.5436 18.3754 24.6371 18.3368 24.7218C18.2983 24.8066 18.241 24.8798 18.1698 24.9353L16.7413 26.0531C17.5911 26.1098 18.3978 26.0695 19.0672 25.9272C23.3009 25.0218 26.1159 21.6098 26.1159 15.9813C26.1159 15.5219 25.2078 13.9235 23.4777 13.9235ZM19.0807 16.6243C19.0963 15.6978 19.3668 14.7969 19.8583 14.0343C20.3497 13.2716 21.0403 12.6813 21.8435 12.337C22.6468 11.9928 23.527 11.91 24.3739 12.099C25.2209 12.2881 25.9969 12.7405 26.605 13.3997C27.243 13.3949 27.7859 13.5679 29 12.7798C28.6994 14.356 28.5513 15.0404 27.9106 15.9813C27.9106 23.3264 23.6957 26.898 19.419 27.812C16.4864 28.4387 12.2222 27.4093 11 26.0426C11.6228 25.9907 14.1533 25.6994 15.616 24.5528C14.3785 23.6791 9.45296 20.5746 12.6897 12.2281C14.2089 14.1282 15.7497 15.4219 17.3111 16.1082C18.3502 16.5647 18.6051 16.5551 19.0816 16.6253L19.0807 16.6243Z" fill="#163152"/>
</svg>
